# xmcd CD database file
#
# Track frame offsets:
#	182
#	13225
#	23705
#	42925
#	54945
#	67005
#	79920
#	92760
#	104135
#	112972
#	125062
#	138865
#	152080
#	162145
#	173732
#	184272
#
# Disc length: 2586 seconds
#
# Revision: 2
# Processed by: cddbd v1.5.2PL0 Copyright (c) Steve Scherf et al.
# Submitted via: CDex 2.23
#
DISCID=d50a1810
DTITLE=Various Artist - Best Of Country Vol. 2
DYEAR=1900
DGENRE=Country
TTITLE0=Jim Reeves - Distant Drums
TTITLE1=Ferlin Husky - Wings Of A Dove
TTITLE2=Bobby Centry - Ode Too Billy Joe
TTITLE3=Tammy Wynette - I Don't Wanna Play House
TTITLE4=Eddy Arnold - Make The World Go Away
TTITLE5=Johnny Horton - North To Alaska
TTITLE6=Stonewall Jackson - BJ The DJ
TTITLE7=Elvis Presley - I Forget To Remember To Forget
TTITLE8=Don Gibson - Blue, Blue Day
TTITLE9=Kitty Wells - It Wasn't God Who Made Honky Tonk Angels
TTITLE10=Jimmy Dean - Big Bad John
TTITLE11=Marty Robbins - Devil Woman
TTITLE12=Buck Owens - I Got A Tiger By The Tail
TTITLE13=Johnny Horton - Battle Of New Orleans
TTITLE14=Wanda Jackson - It's Only Make Believe
TTITLE15=Johnny Cash - Ballad Of A Teenage Queen
EXTD=
EXTT0=
EXTT1=
EXTT2=
EXTT3=
EXTT4=
EXTT5=
EXTT6=
EXTT7=
EXTT8=
EXTT9=
EXTT10=
EXTT11=
EXTT12=
EXTT13=
EXTT14=
EXTT15=
PLAYORDER=
